<svg width="80" height="80" viewBox="0 0 80 80" fill="none" xmlns="http://www.w3.org/2000/svg">
  <defs>
    <linearGradient id="autoGradient" x1="0%" y1="0%" x2="100%" y2="100%">
      <stop offset="0%" style="stop-color:#A855F7;stop-opacity:1" />
      <stop offset="100%" style="stop-color:#8B5CF6;stop-opacity:1" />
    </linearGradient>
  </defs>
  
  <!-- Background circle -->
  <circle cx="40" cy="40" r="38" fill="url(#autoGradient)" stroke="#0D1117" stroke-width="2"/>
  
  <!-- Autonomous System Icon -->
  <g transform="translate(15, 15)">
    <!-- Central processor -->
    <rect x="20" y="20" width="10" height="10" rx="2" fill="#A7F3D0"/>
    
    <!-- Input sensors -->
    <circle cx="10" cy="15" r="3" fill="#E9D5FF"/>
    <circle cx="10" cy="35" r="3" fill="#E9D5FF"/>
    <circle cx="15" cy="45" r="3" fill="#E9D5FF"/>
    <circle cx="35" cy="45" r="3" fill="#E9D5FF"/>
    <circle cx="40" cy="35" r="3" fill="#E9D5FF"/>
    <circle cx="40" cy="15" r="3" fill="#E9D5FF"/>
    
    <!-- Decision paths -->
    <path d="M10 15 L20 22" stroke="#E9D5FF" stroke-width="2" fill="none"/>
    <path d="M10 35 L20 28" stroke="#E9D5FF" stroke-width="2" fill="none"/>
    <path d="M15 45 L22 30" stroke="#E9D5FF" stroke-width="2" fill="none"/>
    <path d="M35 45 L28 30" stroke="#E9D5FF" stroke-width="2" fill="none"/>
    <path d="M40 35 L30 28" stroke="#E9D5FF" stroke-width="2" fill="none"/>
    <path d="M40 15 L30 22" stroke="#E9D5FF" stroke-width="2" fill="none"/>
    
    <!-- Output actions -->
    <polygon points="32,25 38,22 38,28" fill="#A7F3D0"/>
    <polygon points="25,32 22,38 28,38" fill="#A7F3D0"/>
    
    <!-- Feedback loop -->
    <path d="M25 20 Q45 10 35 35" stroke="#A7F3D0" stroke-width="2" fill="none" stroke-dasharray="3,2"/>
  </g>
</svg>
