<svg width="80" height="80" viewBox="0 0 80 80" fill="none" xmlns="http://www.w3.org/2000/svg">
  <defs>
    <linearGradient id="graphGradient" x1="0%" y1="0%" x2="100%" y2="100%">
      <stop offset="0%" style="stop-color:#A855F7;stop-opacity:1" />
      <stop offset="100%" style="stop-color:#8B5CF6;stop-opacity:1" />
    </linearGradient>
  </defs>
  
  <!-- Background circle -->
  <circle cx="40" cy="40" r="38" fill="url(#graphGradient)" stroke="#0D1117" stroke-width="2"/>
  
  <!-- Graph Network -->
  <g transform="translate(10, 10)">
    <!-- Central node -->
    <circle cx="30" cy="30" r="5" fill="#A7F3D0"/>
    
    <!-- Surrounding nodes -->
    <circle cx="15" cy="15" r="4" fill="#E9D5FF"/>
    <circle cx="45" cy="15" r="4" fill="#E9D5FF"/>
    <circle cx="15" cy="45" r="4" fill="#E9D5FF"/>
    <circle cx="45" cy="45" r="4" fill="#E9D5FF"/>
    <circle cx="30" cy="10" r="3" fill="#E9D5FF"/>
    <circle cx="50" cy="30" r="3" fill="#E9D5FF"/>
    <circle cx="30" cy="50" r="3" fill="#E9D5FF"/>
    <circle cx="10" cy="30" r="3" fill="#E9D5FF"/>
    
    <!-- Connections -->
    <line x1="30" y1="30" x2="15" y2="15" stroke="#E9D5FF" stroke-width="2" opacity="0.8"/>
    <line x1="30" y1="30" x2="45" y2="15" stroke="#E9D5FF" stroke-width="2" opacity="0.8"/>
    <line x1="30" y1="30" x2="15" y2="45" stroke="#E9D5FF" stroke-width="2" opacity="0.8"/>
    <line x1="30" y1="30" x2="45" y2="45" stroke="#E9D5FF" stroke-width="2" opacity="0.8"/>
    <line x1="30" y1="30" x2="30" y2="10" stroke="#A7F3D0" stroke-width="2"/>
    <line x1="30" y1="30" x2="50" y2="30" stroke="#A7F3D0" stroke-width="2"/>
    <line x1="30" y1="30" x2="30" y2="50" stroke="#A7F3D0" stroke-width="2"/>
    <line x1="30" y1="30" x2="10" y2="30" stroke="#A7F3D0" stroke-width="2"/>
    
    <!-- Secondary connections -->
    <line x1="15" y1="15" x2="30" y2="10" stroke="#E9D5FF" stroke-width="1" opacity="0.6"/>
    <line x1="45" y1="15" x2="50" y2="30" stroke="#E9D5FF" stroke-width="1" opacity="0.6"/>
    <line x1="45" y1="45" x2="30" y2="50" stroke="#E9D5FF" stroke-width="1" opacity="0.6"/>
    <line x1="15" y1="45" x2="10" y2="30" stroke="#E9D5FF" stroke-width="1" opacity="0.6"/>
  </g>
</svg>
