<svg width="80" height="80" viewBox="0 0 80 80" fill="none" xmlns="http://www.w3.org/2000/svg">
  <defs>
    <linearGradient id="quantGradient" x1="0%" y1="0%" x2="100%" y2="100%">
      <stop offset="0%" style="stop-color:#A855F7;stop-opacity:1" />
      <stop offset="100%" style="stop-color:#8B5CF6;stop-opacity:1" />
    </linearGradient>
  </defs>
  
  <!-- Background circle -->
  <circle cx="40" cy="40" r="38" fill="url(#quantGradient)" stroke="#0D1117" stroke-width="2"/>
  
  <!-- Chart/Graph Icon -->
  <g transform="translate(15, 15)">
    <!-- Chart bars -->
    <rect x="5" y="35" width="6" height="15" fill="#E9D5FF" rx="1"/>
    <rect x="15" y="25" width="6" height="25" fill="#E9D5FF" rx="1"/>
    <rect x="25" y="20" width="6" height="30" fill="#A7F3D0" rx="1"/>
    <rect x="35" y="30" width="6" height="20" fill="#E9D5FF" rx="1"/>
    <rect x="45" y="15" width="6" height="35" fill="#A7F3D0" rx="1"/>
    
    <!-- Trend line -->
    <polyline points="8,35 18,25 28,20 38,30 48,15" stroke="#A7F3D0" stroke-width="2" fill="none"/>
    
    <!-- Data points -->
    <circle cx="8" cy="35" r="2" fill="#A7F3D0"/>
    <circle cx="18" cy="25" r="2" fill="#A7F3D0"/>
    <circle cx="28" cy="20" r="2" fill="#A7F3D0"/>
    <circle cx="38" cy="30" r="2" fill="#A7F3D0"/>
    <circle cx="48" cy="15" r="2" fill="#A7F3D0"/>
    
    <!-- Mathematical symbols -->
    <text x="5" y="10" fill="#E9D5FF" font-size="8" font-family="monospace">Σ</text>
    <text x="40" y="10" fill="#E9D5FF" font-size="8" font-family="monospace">∫</text>
  </g>
</svg>
